<svg xmlns="http://www.w3.org/2000/svg" width="96" height="56" viewBox="0 0 180 92" fill="none" role="img" aria-label="DevOpsForge">
  <rect width="180" height="92" rx="18" fill="#c6eadb"/>
  <path d="M28 46C28 23 45 17 61 17c15 0 26 11 39 29 13 18 24 29 39 29 16 0 25-12 25-29s-9-29-25-29c-15 0-26 11-39 29-13 18-24 29-39 29-16 0-33-6-33-29Z" stroke="#033f47" stroke-width="24" stroke-linecap="butt" stroke-linejoin="round"/>
  <path d="M28 46C28 23 45 17 61 17c15 0 26 11 39 29" stroke="#3f6788" stroke-width="24" stroke-linecap="butt" stroke-linejoin="round"/>
  <path d="M100 46c13-18 24-29 39-29 16 0 25 12 25 29" stroke="#79c88b" stroke-width="24" stroke-linecap="butt" stroke-linejoin="round"/>
  <path d="M164 46c0 17-9 29-25 29-15 0-26-11-39-29" stroke="#3f6788" stroke-width="24" stroke-linecap="butt" stroke-linejoin="round"/>
  <path d="M48 76 34 76 45 64" fill="#ffffff"/>
  <path d="M75 20 98 43" stroke="#ffffff" stroke-width="20" stroke-linecap="butt"/>
  <path d="M115 73 103 73 105 60" fill="#ffffff"/>
  <circle cx="61" cy="17" r="12" fill="#12b65a"/>
  <path d="M137 17 154 17 154 35" fill="#12b65a"/>
  <path d="M80 61 91 72" stroke="#12b65a" stroke-width="9" stroke-linecap="butt"/>
  <circle cx="152" cy="55" r="12" fill="#ffffff"/>
</svg>
